<svg xmlns="http://www.w3.org/2000/svg" viewBox="0 0 24 24" width="24" height="24" class="size-6"><defs><path d="M0 0h24v24H0V0z" id="a"/></defs><g fill="none" fill-rule="evenodd"><path d="M12 0c2.796 0 5.205.084 7.224.252l.46.04A2 2 0 0 1 21.5 2.286V18a2 2 0 0 1-2 2h-15a2 2 0 0 1-2-2V2.285A2 2 0 0 1 4.316.293C6.427.098 8.988 0 12 0zM6.05 12.4a.75.75 0 1 0 0 1.5.75.75 0 0 0 0-1.5zm12 0a.75.75 0 1 0 0 1.5.75.75 0 0 0 0-1.5zM10.5 3.5h-6a1 1 0 0 0-1 1V7a1 1 0 0 0 1 1h6a1 1 0 0 0 1-1V4.5a1 1 0 0 0-1-1zm9 0h-6a1 1 0 0 0-1 1V7a1 1 0 0 0 1 1h6a1 1 0 0 0 1-1V4.5a1 1 0 0 0-1-1zM12 .797a.75.75 0 1 0 0 1.5.75.75 0 0 0 0-1.5zm-2.248 0a.75.75 0 1 0 0 1.5.75.75 0 0 0 0-1.5zm4.496 0a.75.75 0 1 0 0 1.5.75.75 0 0 0 0-1.5z" fill="currentColor"/><path d="M3.474 20.471c2.29-.051 4.151.022 5.583.22l1.58.22a1 1 0 0 1 .863.99V23a1 1 0 0 1-1 1H6.05c-1.16 0-2.16-.214-3-.643l-.002.003a1 1 0 0 1-.548-.888v-.998a1 1 0 0 1 .974-1.003zM20.526 20.471c-2.29-.051-4.151.022-5.583.22l-1.58.22a1 1 0 0 0-.863.99V23a1 1 0 0 0 1 1h4.45c1.16 0 2.16-.214 3-.643l.002.003a1 1 0 0 0 .548-.888v-.998a1 1 0 0 0-.974-1.003z" fill="currentColor"/></g></svg>
